<svg width="54" height="56" viewBox="0 0 54 56" fill="none" xmlns="http://www.w3.org/2000/svg">
<path d="M0 19.2976C0 8.63982 8.63982 0 19.2976 0H53.5508V27.8207C53.5508 38.4784 44.9109 47.1182 34.2532 47.1182H21.4311C18.5963 47.1182 15.7962 47.7428 13.2301 48.9476L0 55.1589V31.5998V19.2976Z" fill="#00124B"/>
<path fill-rule="evenodd" clip-rule="evenodd" d="M24.8502 12.6975C25.5406 12.1587 26.2314 11.6524 26.9185 11.1802C20.5854 6.82842 14.559 5.37482 11.8966 8.03714C9.23431 10.6995 10.6879 16.7259 15.0397 23.059C15.5119 22.3719 16.0182 21.6811 16.557 20.9907C15.4427 19.286 14.572 17.6357 13.9665 16.1154C13.2644 14.3527 12.9633 12.8764 12.973 11.7547C12.9826 10.6479 13.2841 10.061 13.6023 9.74282C13.9205 9.4246 14.5074 9.12308 15.6142 9.11353C16.7359 9.10385 18.2122 9.40492 19.9749 10.107C21.4952 10.7125 23.1455 11.5832 24.8502 12.6975ZM28.9868 33.4205C28.2964 33.9594 27.6056 34.4656 26.9185 34.9378C33.2516 39.2896 39.2781 40.7432 41.9404 38.0809C44.6027 35.4186 43.1491 29.3921 38.7973 23.059C38.3251 23.7462 37.8189 24.4369 37.28 25.1273C38.3944 26.8321 39.265 28.4823 39.8706 30.0027C40.5726 31.7654 40.8737 33.2417 40.864 34.3634C40.8545 35.4702 40.5529 36.057 40.2347 36.3752C39.9165 36.6934 39.3297 36.995 38.2229 37.0045C37.1012 37.0142 35.6249 36.7131 33.8622 36.0111C32.3418 35.4055 30.6915 34.5349 28.9868 33.4205Z" fill="#35C2FF"/>
<path fill-rule="evenodd" clip-rule="evenodd" d="M24.8502 33.4205C23.1455 34.5349 21.4952 35.4055 19.9749 36.0111C18.2122 36.7131 16.7359 37.0142 15.6142 37.0045C14.5074 36.9949 13.9205 36.6934 13.6023 36.3752C13.2841 36.057 12.9826 35.4702 12.973 34.3634C12.9633 33.2417 13.2644 31.7653 13.9665 30.0026C14.572 28.4823 15.4427 26.832 16.557 25.1273C16.0182 24.4369 15.5119 23.7461 15.0397 23.059C10.6879 29.3921 9.23431 35.4186 11.8966 38.0809C14.559 40.7432 20.5854 39.2896 26.9185 34.9378C26.2314 34.4656 25.5406 33.9593 24.8502 33.4205ZM37.28 20.9907C37.8189 21.6811 38.3251 22.3719 38.7973 23.059C43.1491 16.7259 44.6027 10.6995 41.9404 8.03713C39.2781 5.3748 33.2516 6.82841 26.9185 11.1802C27.6056 11.6524 28.2964 12.1587 28.9868 12.6975C30.6915 11.5831 32.3418 10.7125 33.8622 10.107C35.6249 9.40491 37.1012 9.10384 38.2229 9.11352C39.3297 9.12307 39.9165 9.42458 40.2347 9.74281C40.5529 10.061 40.8545 10.6478 40.864 11.7546C40.8737 12.8764 40.5726 14.3527 39.8706 16.1154C39.265 17.6357 38.3944 19.286 37.28 20.9907Z" fill="#35C2FF"/>
<path d="M40.9856 20.804C41.7578 25.1914 39.494 29.2567 35.9292 29.8841C32.3645 30.5115 28.8487 27.4635 28.0765 23.0761C27.3043 18.6887 29.5681 14.6234 33.1328 13.996C36.6976 13.3686 40.2134 16.4166 40.9856 20.804Z" fill="white"/>
<path fill-rule="evenodd" clip-rule="evenodd" d="M43.3613 20.3859C44.2791 25.6006 41.6613 31.3245 36.3474 32.2598C31.0334 33.1951 26.6186 28.7089 25.7008 23.4942C24.783 18.2795 27.4007 12.5556 32.7147 11.6203C38.0287 10.685 42.4434 15.1712 43.3613 20.3859ZM35.9292 29.8841C39.494 29.2567 41.7578 25.1914 40.9856 20.804C40.2134 16.4166 36.6976 13.3686 33.1328 13.996C29.5681 14.6234 27.3043 18.6887 28.0765 23.0761C28.8487 27.4635 32.3645 30.5115 35.9292 29.8841Z" fill="#00124B"/>
<ellipse cx="37.9323" cy="21.1217" rx="4.03309" ry="4.87331" transform="rotate(-9.98212 37.9323 21.1217)" fill="#00124B"/>
<path d="M24.7665 23.6587C25.5387 28.0461 23.2749 32.1114 19.7101 32.7388C16.1454 33.3662 12.6296 30.3181 11.8574 25.9308C11.0852 21.5434 13.349 17.4781 16.9137 16.8507C20.4785 16.2232 23.9943 19.2713 24.7665 23.6587Z" fill="white"/>
<path fill-rule="evenodd" clip-rule="evenodd" d="M27.1421 23.2406C28.06 28.4553 25.4422 34.1792 20.1282 35.1145C14.8143 36.0498 10.3995 31.5636 9.48167 26.3489C8.56386 21.1342 11.1816 15.4103 16.4956 14.475C21.8096 13.5397 26.2243 18.0258 27.1421 23.2406ZM19.7101 32.7388C23.2749 32.1114 25.5387 28.0461 24.7665 23.6587C23.9943 19.2713 20.4785 16.2232 16.9137 16.8506C13.349 17.4781 11.0852 21.5434 11.8574 25.9308C12.6296 30.3181 16.1454 33.3662 19.7101 32.7388Z" fill="#00124B"/>
<ellipse cx="21.7131" cy="23.9764" rx="4.03309" ry="4.87331" transform="rotate(-9.98212 21.7131 23.9764)" fill="#00124B"/>
</svg>
