<svg width="33" height="32" viewBox="0 0 33 32" fill="none" xmlns="http://www.w3.org/2000/svg">
<rect x="0.666748" width="32" height="32" rx="16" fill="#98FAEC"/>
<path d="M14.9949 10.4531L14.6042 10.5C14.6042 10.5 12.8523 10.6914 11.573 11.7188H11.5574L11.5417 11.7344C11.2546 11.998 11.1296 12.3223 10.9324 12.7969C10.7351 13.2715 10.5242 13.877 10.3386 14.5469C9.96753 15.8887 9.66675 17.5137 9.66675 19V19.125L9.72925 19.25C10.1921 20.0625 11.0144 20.5801 11.7761 20.9375C12.5378 21.2949 13.196 21.4844 13.6511 21.5L13.948 21.5156L14.1042 21.25L14.6511 20.2812C15.2312 20.4121 15.8992 20.5 16.6667 20.5C17.4343 20.5 18.1023 20.4121 18.6824 20.2812L19.2292 21.25L19.3855 21.5156L19.6824 21.5C20.1375 21.4844 20.7957 21.2949 21.5574 20.9375C22.3191 20.5801 23.1414 20.0625 23.6042 19.25L23.6667 19.125V19C23.6667 17.5137 23.366 15.8887 22.9949 14.5469C22.8093 13.877 22.5984 13.2715 22.4011 12.7969C22.2039 12.3223 22.0789 11.998 21.7917 11.7344L21.7761 11.7188H21.7605C20.4812 10.6914 18.7292 10.5 18.7292 10.5L18.3386 10.4531L18.198 10.8125C18.198 10.8125 18.0535 11.1777 17.9636 11.5938C17.3972 11.5176 16.9343 11.5 16.6667 11.5C16.3992 11.5 15.9363 11.5176 15.3699 11.5938C15.28 11.1777 15.1355 10.8125 15.1355 10.8125L14.9949 10.4531ZM14.3074 11.5938C14.3289 11.6641 14.3503 11.7246 14.3699 11.7812C13.7234 11.9414 13.0339 12.1855 12.4011 12.5781L12.9324 13.4219C14.2292 12.6172 16.0925 12.5 16.6667 12.5C17.241 12.5 19.1042 12.6172 20.4011 13.4219L20.9324 12.5781C20.2996 12.1855 19.6101 11.9414 18.9636 11.7812C18.9832 11.7246 19.0046 11.6641 19.0261 11.5938C19.4929 11.6875 20.3835 11.9023 21.1199 12.4844C21.116 12.4863 21.3074 12.7754 21.4792 13.1875C21.655 13.6113 21.8503 14.1758 22.0261 14.8125C22.364 16.0332 22.6296 17.5195 22.6511 18.8281C22.3367 19.3086 21.7527 19.7422 21.1355 20.0312C20.5964 20.2832 20.1707 20.375 19.9167 20.4219L19.6667 20C19.8152 19.9453 19.9617 19.8848 20.0886 19.8281C20.8582 19.4902 21.2761 19.125 21.2761 19.125L20.6199 18.375C20.6199 18.375 20.3386 18.6328 19.6824 18.9219C19.0261 19.2109 18.0242 19.5 16.6667 19.5C15.3093 19.5 14.3074 19.2109 13.6511 18.9219C12.9949 18.6328 12.7136 18.375 12.7136 18.375L12.0574 19.125C12.0574 19.125 12.4753 19.4902 13.2449 19.8281C13.3718 19.8848 13.5183 19.9453 13.6667 20L13.4167 20.4219C13.1628 20.375 12.7371 20.2832 12.198 20.0312C11.5808 19.7422 10.9968 19.3086 10.6824 18.8281C10.7039 17.5195 10.9695 16.0332 11.3074 14.8125C11.4832 14.1758 11.6785 13.6113 11.8542 13.1875C12.0261 12.7754 12.2175 12.4863 12.2136 12.4844C12.95 11.9023 13.8406 11.6875 14.3074 11.5938ZM14.9167 15C14.53 15 14.1882 15.2207 13.9792 15.5C13.7703 15.7793 13.6667 16.123 13.6667 16.5C13.6667 16.877 13.7703 17.2207 13.9792 17.5C14.1882 17.7793 14.53 18 14.9167 18C15.3035 18 15.6453 17.7793 15.8542 17.5C16.0632 17.2207 16.1667 16.877 16.1667 16.5C16.1667 16.123 16.0632 15.7793 15.8542 15.5C15.6453 15.2207 15.3035 15 14.9167 15ZM18.4167 15C18.03 15 17.6882 15.2207 17.4792 15.5C17.2703 15.7793 17.1667 16.123 17.1667 16.5C17.1667 16.877 17.2703 17.2207 17.4792 17.5C17.6882 17.7793 18.03 18 18.4167 18C18.8035 18 19.1453 17.7793 19.3542 17.5C19.5632 17.2207 19.6667 16.877 19.6667 16.5C19.6667 16.123 19.5632 15.7793 19.3542 15.5C19.1453 15.2207 18.8035 15 18.4167 15ZM14.9167 16C14.9441 16 14.9792 16.0098 15.0417 16.0938C15.1042 16.1777 15.1667 16.3242 15.1667 16.5C15.1667 16.6758 15.1042 16.8223 15.0417 16.9062C14.9792 16.9902 14.9441 17 14.9167 17C14.8894 17 14.8542 16.9902 14.7917 16.9062C14.7292 16.8223 14.6667 16.6758 14.6667 16.5C14.6667 16.3242 14.7292 16.1777 14.7917 16.0938C14.8542 16.0098 14.8894 16 14.9167 16ZM18.4167 16C18.4441 16 18.4792 16.0098 18.5417 16.0938C18.6042 16.1777 18.6667 16.3242 18.6667 16.5C18.6667 16.6758 18.6042 16.8223 18.5417 16.9062C18.4792 16.9902 18.4441 17 18.4167 17C18.3894 17 18.3542 16.9902 18.2917 16.9062C18.2292 16.8223 18.1667 16.6758 18.1667 16.5C18.1667 16.3242 18.2292 16.1777 18.2917 16.0938C18.3542 16.0098 18.3894 16 18.4167 16Z" fill="#292F36"/>
</svg>
