<svg width="33" height="32" viewBox="0 0 33 32" fill="none" xmlns="http://www.w3.org/2000/svg">
<rect x="0.666748" width="32" height="32" rx="16" fill="#98FAEC"/>
<path d="M16.6668 9.49756C15.0838 9.49762 13.5524 10.061 12.3468 11.0868C11.1411 12.1126 10.3398 13.534 10.0862 15.0965C9.83265 16.6591 10.1434 18.2609 10.9627 19.6154C11.7821 20.9698 13.0567 21.9885 14.5585 22.4892C14.8918 22.5476 15.0168 22.3476 15.0168 22.1726C15.0168 22.0142 15.0085 21.4892 15.0085 20.9309C13.3335 21.2392 12.9001 20.5226 12.7668 20.1476C12.6189 19.7829 12.3843 19.4597 12.0835 19.2059C11.8501 19.0809 11.5168 18.7726 12.0751 18.7642C12.2883 18.7874 12.4928 18.8616 12.6712 18.9805C12.8497 19.0995 12.9968 19.2597 13.1001 19.4476C13.1913 19.6114 13.3139 19.7555 13.4609 19.8719C13.6079 19.9882 13.7765 20.0744 13.9568 20.1255C14.1372 20.1766 14.3259 20.1916 14.5121 20.1696C14.6982 20.1477 14.8783 20.0892 15.0418 19.9976C15.0707 19.6586 15.2217 19.3418 15.4668 19.1059C13.9835 18.9392 12.4335 18.3642 12.4335 15.8142C12.4241 15.1517 12.6686 14.5106 13.1168 14.0226C12.913 13.4467 12.9368 12.8148 13.1835 12.2559C13.1835 12.2559 13.7418 12.0809 15.0168 12.9392C16.1077 12.6392 17.2593 12.6392 18.3501 12.9392C19.6251 12.0726 20.1835 12.2559 20.1835 12.2559C20.4301 12.8148 20.454 13.4467 20.2501 14.0226C20.6997 14.5098 20.9444 15.1514 20.9335 15.8142C20.9335 18.3726 19.3751 18.9392 17.8918 19.1059C18.0509 19.2672 18.1734 19.4608 18.2511 19.6736C18.3287 19.8864 18.3597 20.1134 18.3418 20.3392C18.3418 21.2309 18.3335 21.9476 18.3335 22.1726C18.3335 22.3476 18.4585 22.5559 18.7918 22.4892C20.2909 21.9845 21.5619 20.9634 22.3777 19.6083C23.1936 18.2531 23.5014 16.6521 23.2461 15.091C22.9907 13.53 22.1889 12.1105 20.9838 11.0859C19.7786 10.0613 18.2486 9.49838 16.6668 9.49756Z" fill="#292F36"/>
</svg>
