<svg width="59" height="22" viewBox="0 0 59 22" fill="none" xmlns="http://www.w3.org/2000/svg">
<path d="M19.8038 0.823435H14.9899V9.02614H5.54044V0.823435H0.726562V21.6274H5.54044V13.0978H14.9899V21.6274H19.8038V0.823435Z" fill="#003CA0"/>
<path d="M30.8485 21.9105C29.7854 21.8006 28.7744 21.5675 27.8155 21.2113C26.4486 20.6764 25.26 19.9235 24.2497 18.9526C23.2394 17.9818 22.447 16.8425 21.8725 15.5348C21.3178 14.2271 21.0405 12.7907 21.0405 11.2254C21.0405 9.66017 21.3178 8.22371 21.8725 6.91603C22.447 5.60835 23.2394 4.46908 24.2497 3.49823C25.2798 2.52738 26.4784 1.78438 27.8453 1.26923C29.2122 0.734276 30.7078 0.466797 32.3323 0.466797C34.135 0.466797 35.7594 0.78381 37.2056 1.41784C38.0863 1.78682 38.8811 2.26307 39.5902 2.84657L37.7229 6.91869C37.0299 6.14981 36.2631 5.57434 35.4227 5.19227C34.551 4.77619 33.6001 4.56815 32.57 4.56815C31.5993 4.56815 30.7078 4.72666 29.8956 5.04367C29.0834 5.36068 28.3801 5.81639 27.7858 6.41079C27.1915 7.00519 26.726 7.70856 26.3892 8.52091C26.0722 9.33325 25.9138 10.2348 25.9138 11.2254C25.9138 12.2161 26.0722 13.1176 26.3892 13.9299C26.726 14.7423 27.1915 15.4457 27.7858 16.0401C28.3801 16.6345 29.0834 17.0902 29.8956 17.4072C30.7078 17.7242 31.5993 17.8827 32.57 17.8827C32.6121 17.8827 32.654 17.8824 32.6959 17.8817L30.8485 21.9105Z" fill="#003CA0"/>
<path fill-rule="evenodd" clip-rule="evenodd" d="M37.2996 15.9528L34.6856 21.785C34.9413 21.7401 35.1924 21.6876 35.4391 21.6274H39.7226L41.5762 17.1694H51.2183L53.0647 21.6274H58.1163L48.8154 0.823435H44.061L43.9286 1.12064H43.9475L40.6359 8.50911L37.3337 15.919C37.3224 15.9303 37.311 15.9416 37.2996 15.9528ZM43.0961 13.5139H49.7043L46.4067 5.55187L43.0961 13.5139Z" fill="#003CA0"/>
</svg>
