<svg width="33" height="32" viewBox="0 0 33 32" fill="none" xmlns="http://www.w3.org/2000/svg">
<rect x="0.666748" width="32" height="32" rx="16" fill="#98FAEC"/>
<path fill-rule="evenodd" clip-rule="evenodd" d="M15.1603 13.0122C15.7826 12.6893 16.4909 12.5709 17.1845 12.6737C17.8919 12.7786 18.5468 13.1083 19.0525 13.614C19.5582 14.1197 19.8879 14.7746 19.9928 15.482C20.0956 16.1756 19.9772 16.8839 19.6543 17.5062C19.3313 18.1286 18.8204 18.6332 18.1942 18.9484C17.5679 19.2637 16.8582 19.3734 16.166 19.262C15.4737 19.1506 14.8343 18.8238 14.3385 18.328C13.8427 17.8322 13.5159 17.1928 13.4045 16.5006C13.2931 15.8083 13.4029 15.0986 13.7181 14.4724C14.0333 13.8461 14.538 13.3352 15.1603 13.0122ZM16.9889 13.9926C16.5728 13.9309 16.1478 14.002 15.7744 14.1957C15.401 14.3895 15.0982 14.6961 14.909 15.0718C14.7199 15.4476 14.6541 15.8734 14.7209 16.2887C14.7878 16.7041 14.9838 17.0877 15.2813 17.3852C15.5788 17.6827 15.9624 17.8788 16.3778 17.9456C16.7931 18.0124 17.2189 17.9466 17.5947 17.7575C17.9705 17.5683 18.277 17.2655 18.4708 16.8921C18.6645 16.5187 18.7356 16.0937 18.6739 15.6776C18.6109 15.2532 18.4132 14.8602 18.1097 14.5568C17.8063 14.2534 17.4133 14.0556 16.9889 13.9926Z" fill="#292F36"/>
<path d="M20.3334 11.6665C19.9652 11.6665 19.6667 11.965 19.6667 12.3332C19.6667 12.7014 19.9652 12.9998 20.3334 12.9998H20.34C20.7082 12.9998 21.0067 12.7014 21.0067 12.3332C21.0067 11.965 20.7082 11.6665 20.34 11.6665H20.3334Z" fill="#292F36"/>
<path fill-rule="evenodd" clip-rule="evenodd" d="M9.33337 12.6665C9.33337 10.4574 11.1242 8.6665 13.3334 8.6665H20C22.2092 8.6665 24 10.4574 24 12.6665V19.3332C24 21.5423 22.2092 23.3332 20 23.3332H13.3334C11.1242 23.3332 9.33337 21.5423 9.33337 19.3332V12.6665ZM13.3334 9.99984C11.8606 9.99984 10.6667 11.1937 10.6667 12.6665V19.3332C10.6667 20.8059 11.8606 21.9998 13.3334 21.9998H20C21.4728 21.9998 22.6667 20.8059 22.6667 19.3332V12.6665C22.6667 11.1937 21.4728 9.99984 20 9.99984H13.3334Z" fill="#292F36"/>
</svg>
