<svg width="200" height="59" viewBox="0 0 200 59" fill="none" xmlns="http://www.w3.org/2000/svg">
<g clip-path="url(#clip0_50_1054)">
<path d="M14.2963 20.0889C15.6992 17.0342 19.5853 3.55587 23.7189 2.51748C24.352 2.36191 25.3855 2.41843 25.7445 2.80954C24.9182 6.15627 20.5226 23.8 20.5226 25.8777C20.5226 27.9623 21.5292 28.9858 23.2828 29.2906C27.2525 29.9809 29.7952 27.1607 31.5288 24.3611C31.41 25.0455 31.3389 25.5785 31.3389 25.8777C31.3389 27.9623 32.3455 28.9858 34.0991 29.2906C38.0688 29.9809 40.611 27.1607 42.3447 24.3615C42.2263 25.0455 42.1552 25.5785 42.1552 25.8777C42.1552 27.9623 43.1618 28.9858 44.9154 29.2906C48.7122 29.9505 51.2015 27.399 52.9284 24.7259L51.8501 29.1883H56.8526L57.7242 25.5799L58.9235 20.6173H64.744C64.425 22.0491 64.1494 23.3687 63.9771 24.3611C63.8584 25.0455 63.7872 25.5785 63.7872 25.8777C63.7872 27.9623 64.794 28.9858 66.5475 29.2906C70.5175 29.9809 73.0599 27.1607 74.7934 24.3615L75.2214 23.6219H73.8045C73.3798 24.1631 72.913 24.6839 72.4361 25.1341C70.4668 26.9958 67.8991 28.2304 68.5432 25.5667C69.1868 22.9031 72.1497 10.6449 72.1497 10.6449H67.1458C67.1458 10.6449 67.1449 10.649 65.051 19.3248H59.2357L61.3153 10.6449H54.1843L54.0398 11.2914H56.166C55.7807 12.8181 54.7894 16.7856 54.0125 20.2385L53.9691 20.4185C53.6572 21.682 52.2766 23.7426 50.804 25.1341C48.8342 26.9958 46.267 28.2304 46.9107 25.5667C47.5543 22.9031 50.5171 10.6449 50.5171 10.6449H45.5137C45.5137 10.6449 45.5137 10.6449 43.1722 20.3466V20.3425C42.8985 21.5979 41.4898 23.7151 39.9877 25.1341C38.0179 26.9958 35.4507 28.2304 36.0944 25.5667C36.738 22.9031 39.7008 10.6449 39.7008 10.6449H34.6974C34.6974 10.6449 34.6975 10.6449 32.356 20.3466L32.3564 20.3425C32.0823 21.5979 30.6735 23.7151 29.1714 25.1341C27.2021 26.9958 24.6344 28.2304 25.2785 25.5667C25.9217 22.9031 31.2691 0.546814 31.2691 0.546814C21.4835 -0.928306 15.4658 -0.106489 10.4868 16.3769C9.76937 18.753 8.43447 22.4886 7.24616 24.6925C6.28462 26.4759 4.73478 27.9908 3.26382 27.9908C1.79286 27.9908 1.33997 26.9858 1.33997 26.9858H-0.0769043C-0.0769043 26.9858 0.439712 29.2634 3.94501 29.3959C10.3023 29.6359 11.8823 25.9253 14.2963 20.0889Z" fill="#2B2A29"/>
<path d="M130.741 31.621C129.948 33.8891 128.812 35.8805 127.48 37.4899C124.61 40.956 120.822 42.6455 117.557 41.4782C116.528 41.1101 115.635 40.4868 114.891 39.6654C114.359 39.0786 113.908 38.3841 113.536 37.6128C112.246 34.9487 111.933 31.3135 112.818 27.5288C112.981 26.8331 113.183 26.1323 113.427 25.4316C115.927 18.2782 121.83 13.8651 126.611 15.5744C131.392 17.2833 133.241 24.4677 130.741 31.621ZM199.631 23.6219H198.506C198.082 24.1631 197.615 24.6839 197.138 25.1341C195.169 26.9958 192.601 28.2304 193.244 25.5667C193.888 22.9031 196.851 10.6449 196.851 10.6449H191.848C191.848 10.6449 191.848 10.6449 189.506 20.3462L189.507 20.3425C189.232 21.5979 187.824 23.7151 186.322 25.1341C184.352 26.9958 181.785 28.2304 182.429 25.5667C183.072 22.9031 186.035 10.6449 186.035 10.6449H181.031C181.031 10.6449 181.031 10.6472 178.708 20.2706C178.711 20.2584 178.714 20.2462 178.717 20.2335L178.686 20.3587C178.679 20.3922 178.668 20.4279 178.659 20.4623C178.643 20.5224 178.626 20.5835 178.606 20.6472C178.601 20.6626 178.595 20.6794 178.589 20.6951C178.566 20.767 178.539 20.8402 178.51 20.9158C178.507 20.9244 178.503 20.9334 178.5 20.9416C178.466 21.0256 178.431 21.1111 178.392 21.1982C178.391 21.1996 178.39 21.2005 178.39 21.202C177.838 22.4289 176.704 23.9994 175.509 25.1291C175.325 25.3023 175.136 25.4699 174.946 25.63C174.942 25.6332 174.937 25.6368 174.933 25.64C174.761 25.7838 174.587 25.9185 174.415 26.0473C174.38 26.0726 174.346 26.0984 174.312 26.1233C174.188 26.2132 174.064 26.2996 173.942 26.3795C173.854 26.4493 173.757 26.5071 173.656 26.5577C173.642 26.5659 173.628 26.5748 173.615 26.583C173.557 26.6169 173.5 26.6481 173.443 26.6793C173.413 26.6961 173.382 26.7118 173.352 26.7281C173.151 26.8331 172.96 26.9184 172.78 26.9799C172.774 26.9822 172.769 26.984 172.763 26.9863C171.983 27.248 171.451 27.0581 171.527 26.1061C171.529 26.0803 171.528 26.0582 171.53 26.0324C171.531 26.0261 171.53 26.0211 171.531 26.0147C171.531 26.0143 171.531 26.0143 171.531 26.0134C171.546 25.8882 171.573 25.7475 171.608 25.5971C171.768 24.9591 171.92 24.2457 172.147 23.3597C172.578 21.6834 171.502 19.2404 168.564 18.7475C171.632 18.4004 173.498 17.7774 174.239 14.7119C174.904 11.9587 174.988 11.304 176.388 10.6449C175.779 9.86963 172.383 9.76609 171.091 10.6399C170.405 11.1033 170.096 11.7593 169.534 14.0703C169 16.2607 167.857 17.6544 166.036 17.8985C165.297 17.9971 164.368 18.0323 163.192 18.0323L164.977 10.6449H159.973C159.973 10.6449 159.973 10.6481 159.972 10.649H157.828L157.683 11.2914H159.81C159.424 12.8181 158.433 16.7856 157.656 20.2385L157.613 20.4185C157.301 21.682 155.921 23.7426 154.448 25.1341C152.478 26.9958 149.91 28.2304 150.554 25.5667C151.198 22.9031 154.161 10.6449 154.161 10.6449H149.157C149.157 10.6449 149.156 10.649 148.204 14.5961C148.028 15.3049 147.517 16.2639 146.842 17.215C146.827 17.2366 146.811 17.2584 146.795 17.2801C146.736 17.3615 146.678 17.4428 146.617 17.5238C146.578 17.5757 146.537 17.6278 146.498 17.6798C146.459 17.7304 146.42 17.7814 146.38 17.8322C146.31 17.9212 146.238 18.0093 146.165 18.097C146.155 18.1101 146.144 18.1237 146.134 18.1364C145.786 18.5531 145.418 18.9505 145.044 19.3041C144.962 19.381 144.879 19.455 144.796 19.5292C144.748 19.5722 144.701 19.616 144.652 19.6585C144.568 19.7322 144.482 19.8023 144.396 19.8732C144.341 19.9184 144.286 19.9637 144.231 20.0075C144.148 20.0735 144.065 20.1368 143.982 20.1987C143.921 20.2439 143.861 20.2877 143.801 20.3312C143.723 20.3868 143.645 20.4419 143.568 20.4935C143.497 20.5419 143.426 20.5853 143.356 20.63C143.29 20.6712 143.224 20.7141 143.16 20.7525C143.028 20.8298 142.897 20.9013 142.772 20.9632C142.746 20.9759 142.722 20.9849 142.697 20.9967C142.591 21.0469 142.487 21.0916 142.387 21.1287C142.351 21.1422 142.317 21.1513 142.282 21.163C142.196 21.192 142.112 21.215 142.033 21.2322C141.999 21.2394 141.966 21.2449 141.934 21.2499C141.857 21.2615 141.783 21.2662 141.714 21.2647C141.684 21.2642 141.652 21.2656 141.624 21.2621C141.593 21.2589 141.564 21.253 141.535 21.2462C141.494 21.2367 141.455 21.2236 141.418 21.2073C141.396 21.1973 141.374 21.1884 141.353 21.1762C141.302 21.1454 141.255 21.1083 141.217 21.0604C141.215 21.0577 141.212 21.0559 141.21 21.0532C141.166 20.9981 141.132 20.9307 141.105 20.8525C141.102 20.8434 141.101 20.8321 141.098 20.8226C141.076 20.7511 141.062 20.6706 141.055 20.5803C141.054 20.5649 141.054 20.5487 141.053 20.5324C141.049 20.4347 141.052 20.3276 141.065 20.2078C141.066 20.1992 141.067 20.1915 141.068 20.1829C141.084 20.0482 141.111 19.9 141.15 19.7367C141.794 17.0735 143.347 10.6449 143.347 10.6449H138.344C138.344 10.6449 138.343 10.6512 137.439 14.4008C136.823 17.2345 133.498 17.7385 131.362 15.5355C129.912 14.0392 128.665 12.9876 126.928 12.3751C121.041 10.2996 114.048 14.6056 110.535 22.1382C106.389 21.4334 101.544 21.4772 97.7744 25.5243C97.701 25.4086 97.6349 25.2873 97.5578 25.1739C96.5325 23.785 95.1379 22.928 93.6394 22.4451C92.3396 22.0261 90.9644 21.8814 89.6803 21.9474C88.8813 21.988 88.1117 22.0934 87.4291 22.267C87.6961 22.1296 87.9481 21.9705 88.1914 21.8C88.623 21.4985 89.0092 21.1422 89.3644 20.7566C89.5616 20.5424 89.7425 20.3136 89.9152 20.079C91.7244 17.6272 92.1996 14.1825 91.0382 12.0156C88.82 7.87731 81.2572 8.69195 78.5836 11.1264C76.8598 12.696 76.296 14.753 76.8108 16.366C76.8331 16.4361 76.8562 16.5053 76.8825 16.5735C76.9015 16.6223 76.9184 16.672 76.9392 16.72C76.9962 16.851 77.0606 16.9786 77.1336 17.102C77.1431 17.1182 77.154 17.1336 77.164 17.1499C77.2401 17.2738 77.3231 17.3931 77.4151 17.5076C77.4205 17.5138 77.4251 17.5206 77.4305 17.5269C77.7468 17.9162 78.1457 18.234 78.6008 18.4555C78.6112 18.461 78.6198 18.4678 78.6302 18.4726C78.6433 18.4782 78.6557 18.4812 78.6679 18.4862C79.1251 18.6969 79.6342 18.8135 80.1712 18.8045C80.3539 18.8013 80.5321 18.7801 80.7066 18.7493C80.7487 18.743 80.7912 18.7362 80.833 18.7282C80.8615 18.7223 80.8897 18.7146 80.9178 18.7082C81.4563 18.5866 81.933 18.3371 82.3291 17.9989C82.3451 17.9849 82.3614 17.9718 82.3777 17.9574C82.4258 17.9148 82.4719 17.871 82.5172 17.8263C82.5635 17.7801 82.6101 17.7349 82.6537 17.6866C82.661 17.6789 82.6673 17.6712 82.6741 17.6635C83.2384 17.0383 83.5787 16.2086 83.5629 15.301C83.5402 13.9985 82.7942 12.8778 81.7141 12.3118C81.7136 12.3109 81.7136 12.3104 81.7132 12.3095C82.3264 9.92525 85.9334 10.2413 86.7592 13.0302C87.4745 15.1708 86.6899 17.6712 85.2576 20.0034C85.1175 20.2323 84.9734 20.4596 84.8215 20.6839C84.4318 21.2603 84.0184 21.8267 83.5692 22.3661C82.2068 24.0025 80.6327 25.432 79.2067 26.4103L80.6386 26.9645C84.2124 25.031 88.1207 24.7318 91.26 26.5392C96.804 29.7322 97.8465 38.2847 93.5878 45.6418C89.3291 52.9994 81.3819 56.3752 75.8373 53.1825C70.2932 49.9894 69.2512 41.437 73.5099 34.0799C73.8221 33.5401 74.1567 33.0243 74.5062 32.5284C73.0798 32.4867 71.5161 32.4687 69.7978 32.4826C69.7842 32.4826 69.7693 32.4831 69.7556 32.4831C62.8064 32.5415 53.4346 33.1079 41.169 34.63C9.3061 38.5835 5.59394 49.8444 6.496 54.1296C7.28229 57.8656 11.3679 58.9488 14.9496 58.0076C17.3118 57.3865 18.6239 54.9577 18.0914 53.2752C17.7719 52.2373 16.8042 51.4822 15.6589 51.4822C14.2538 51.4822 13.1147 52.6183 13.1147 54.0197C13.1147 54.8833 13.5476 55.6441 14.208 56.103C13.2467 56.7635 9.57308 57.0031 8.63222 54.0157C7.36285 49.9854 12.0732 44.409 23.612 40.8277C33.8336 37.655 51.7554 36.2498 68.2921 36.1847C65.8822 44.1152 67.9436 52.0858 73.868 55.4976C77.8072 57.7665 82.6424 57.5478 87.1109 55.3724C90.8266 53.616 94.2713 50.4973 96.698 46.305C96.7274 46.2548 96.7547 46.2029 96.7832 46.1523C96.8067 46.112 96.8321 46.0736 96.8553 46.0333C100.105 40.4189 100.89 34.2331 99.4524 29.2697C99.4414 29.2327 99.4274 29.1978 99.4161 29.1608C101.253 26.9912 104.552 25.3529 108.378 27.0125C107.394 34.1725 110.34 42.3407 115.646 44.2114C122.052 46.4701 129.771 41.1743 132.887 32.3832C134.498 27.8357 134.559 23.2467 133.359 19.5604C134.897 19.6296 136.563 18.6413 136.563 18.6413C136.563 18.6413 136.391 19.6088 136.391 20.0532C136.389 22.1811 137.398 23.1607 139.151 23.4654C139.266 23.4858 139.375 23.4926 139.487 23.5071C139.531 23.5125 139.572 23.5125 139.616 23.517C139.772 23.5337 139.926 23.5468 140.077 23.5527C140.141 23.5559 140.204 23.5559 140.268 23.5563C140.428 23.5581 140.587 23.5568 140.742 23.5468C140.789 23.5437 140.836 23.5382 140.882 23.5341C141.049 23.5198 141.215 23.5021 141.376 23.4749C141.4 23.471 141.423 23.4651 141.448 23.4604C142.605 23.2508 143.613 22.7236 144.494 22.0111C144.501 22.0052 144.508 21.9998 144.515 21.9944C144.647 21.8877 144.773 21.7764 144.898 21.6625C144.922 21.6409 144.946 21.6205 144.969 21.5988C145.085 21.4912 145.198 21.3805 145.31 21.2671C145.339 21.2367 145.37 21.2068 145.399 21.1762C145.505 21.0653 145.609 20.9523 145.711 20.8375C145.742 20.8019 145.774 20.7665 145.805 20.7304C145.905 20.6155 146.003 20.4989 146.099 20.38C146.129 20.3439 146.158 20.3072 146.187 20.2706C146.284 20.1486 146.379 20.0255 146.472 19.9003C146.495 19.8687 146.519 19.8367 146.542 19.8045C146.64 19.6716 146.735 19.5378 146.829 19.4026C146.842 19.3845 146.854 19.3665 146.866 19.3484C146.968 19.1996 147.068 19.0508 147.164 18.9008C147.054 19.3592 146.939 19.8367 146.816 20.3466C146.47 21.8832 146.171 23.3063 145.989 24.3615C145.87 25.0455 145.799 25.5785 145.799 25.8777C145.799 27.9623 146.805 28.9853 148.559 29.2906C152.356 29.9505 154.845 27.399 156.572 24.7259L155.494 29.1883H160.496L163.176 18.0974L162.88 19.3248C164.398 19.3041 166.527 19.257 167.056 19.7354C167.585 20.2137 167.638 20.9949 167.524 21.8954C167.518 21.9438 167.51 21.9939 167.502 22.0436C167.317 22.9166 167.16 23.7096 167.047 24.3611C166.928 25.0455 166.857 25.5785 166.857 25.8777C166.857 27.9623 167.863 28.9853 169.617 29.2906C173.586 29.9809 176.129 27.1607 177.863 24.3615C177.744 25.0455 177.673 25.5785 177.673 25.8777C177.673 27.9623 178.679 28.9853 180.433 29.2906C184.403 29.9809 186.945 27.1607 188.678 24.3615C188.561 25.0455 188.489 25.5785 188.489 25.8777C188.489 27.9623 189.496 28.9853 191.249 29.2906C195.219 29.9809 197.761 27.1607 199.495 24.3615L199.923 23.6219H199.631Z" fill="#2B2A29"/>
<path d="M126.795 17.7499C124.291 16.6332 121.235 17.5333 118.616 19.819C119.836 19.2991 121.094 19.1707 122.283 19.5283C126.066 20.6658 127.719 26.2611 125.976 32.026C124.666 36.3629 121.806 39.5591 118.86 40.3931C122.585 40.574 126.872 37.2801 129.186 32.1169C131.93 25.9945 130.86 19.5622 126.795 17.7499Z" fill="#3FACE2"/>
<path d="M90.3924 28.7476C87.8747 27.625 84.8025 28.5296 82.1687 30.8281C83.3957 30.305 84.6603 30.1762 85.8559 30.5355C89.6587 31.6793 91.3207 37.305 89.5689 43.1006C88.2509 47.461 85.3763 50.6744 82.4144 51.513C86.1586 51.6952 90.47 48.3837 92.796 43.1924C95.555 37.0369 94.479 30.5695 90.3924 28.7476Z" fill="#3FACE2"/>
</g>
<defs>
<clipPath id="clip0_50_1054">
<rect width="200" height="58.2846" fill="white"/>
</clipPath>
</defs>
</svg>
