<svg width="150" height="47" viewBox="0 0 150 47" fill="none" xmlns="http://www.w3.org/2000/svg">
<g clip-path="url(#clip0_5698_55063)">
<path fill-rule="evenodd" clip-rule="evenodd" d="M3.34233 20.269C3.94247 9.23308 11.3275 0.659832 19.8372 1.12011C28.3468 1.58039 35.6392 7.20534 35.1242 17.7865C34.8358 23.7148 30.3632 29.733 27.0757 35.6434C24.4953 40.2823 23.5419 45.6731 19.8751 45.402C11.5365 44.7855 2.74219 31.3049 3.34233 20.269Z" fill="#FFCF00"/>
<path fill-rule="evenodd" clip-rule="evenodd" d="M9.40285 7.05101C6.57776 10.3307 4.65691 15.0125 4.36804 20.3244C4.08244 25.5764 6.04063 31.4928 9.11632 36.182C12.2218 40.9166 16.2635 44.1078 19.9511 44.3804L19.8751 45.402L19.9511 44.3804C21.1108 44.4661 21.9774 43.738 22.9777 41.8795C23.4198 41.0581 23.8376 40.1108 24.2988 39.065C24.3446 38.9611 24.3909 38.8562 24.4376 38.7504C24.9471 37.5969 25.5072 36.3515 26.1775 35.1464C26.8873 33.8703 27.6519 32.5888 28.409 31.3202C28.5385 31.1032 28.6677 30.8865 28.7965 30.6703C29.6822 29.183 30.5459 27.7123 31.3144 26.2469C32.8585 23.3026 33.9649 20.4758 34.0982 17.7368L34.0982 17.7368C34.343 12.7072 32.7374 8.94802 30.1423 6.386C27.5303 3.80739 23.834 2.36221 19.7815 2.14302C15.911 1.93367 12.227 3.77242 9.40285 7.05101ZM7.84449 5.71594C10.9903 2.06401 15.2537 -0.153728 19.8928 0.0971951C24.35 0.338281 28.5547 1.93572 31.5876 4.92995C34.6373 7.94076 36.4204 12.2846 36.1502 17.8361C35.995 21.0255 34.721 24.1719 33.1349 27.1964C32.3382 28.7154 31.4494 30.2279 30.5629 31.7165C30.4323 31.9358 30.3019 32.1544 30.1718 32.3724C29.414 33.6424 28.6674 34.8936 27.974 36.1403L27.0757 35.6434L27.974 36.1403C27.3541 37.2547 26.8273 38.4228 26.3177 39.5763C26.27 39.6843 26.2224 39.7923 26.1748 39.9002C25.7215 40.9286 25.2705 41.9519 24.7879 42.8485C23.7497 44.7773 22.3062 46.609 19.7992 46.4236C15.1481 46.0797 10.6233 42.2223 7.39704 37.3035C4.14096 32.3393 2.00209 25.9975 2.31662 20.2135C2.6279 14.4895 4.69962 9.36682 7.84449 5.71594Z" fill="#2B2A29"/>
<path d="M50.3582 35.5528C50.2371 36.1565 49.8739 36.4584 49.2684 36.4584H47.6792C47.0738 36.4584 46.8317 36.1565 46.9527 35.5528L48.5646 27.1979L44.637 32.9037C44.4553 33.1603 44.2396 33.2885 43.9899 33.2885C43.7401 33.2885 43.5774 33.1603 43.5017 32.9037L41.7536 27.1979L40.1416 35.5528C40.0206 36.1565 39.6573 36.4584 39.0519 36.4584H37.4626C36.8572 36.4584 36.615 36.1565 36.7361 35.5528L39.5514 21.062C39.6724 20.4582 40.0357 20.1564 40.6411 20.1564H42.2304C42.412 20.1564 42.5709 20.1979 42.7072 20.2809C42.8434 20.3639 42.9342 20.4809 42.9795 20.6319L45.1138 27.5602L49.9269 20.6319C50.1539 20.3148 50.4641 20.1564 50.8577 20.1564H52.4469C53.0524 20.1564 53.2946 20.4582 53.1735 21.062L50.3582 35.5528ZM64.003 35.349C64.0333 35.681 63.9652 35.949 63.7987 36.1527C63.6285 36.3565 63.3939 36.4584 63.0911 36.4584H61.2143C60.9116 36.4584 60.7035 36.3867 60.5975 36.2433C60.4916 36.0999 60.431 35.8697 60.4159 35.5528L60.325 33.2885H56.9422L55.966 35.5528C55.8298 35.8697 55.6822 36.0999 55.5232 36.2433C55.3644 36.3867 55.1335 36.4584 54.8308 36.4584H52.9691C52.6664 36.4584 52.4697 36.3565 52.3788 36.1527C52.2881 35.949 52.3258 35.681 52.4924 35.349L59.2353 21.062C59.3715 20.7752 59.5116 20.5526 59.6553 20.3941C59.7991 20.2356 60.0224 20.1564 60.325 20.1564H62.0846C62.3873 20.1564 62.5803 20.2356 62.656 20.3941C62.7316 20.5526 62.7846 20.7752 62.8149 21.062L64.003 35.349ZM60.2116 30.2319L60.0526 26.0658L58.2591 30.2319H60.2116ZM76.2629 35.5528C76.1419 36.1565 75.7786 36.4584 75.1732 36.4584H73.5839C73.145 36.4584 72.9028 36.315 72.8574 36.0282L70.9276 27.9904L69.4518 35.5528C69.3308 36.1565 68.9675 36.4584 68.3621 36.4584H66.7728C66.1674 36.4584 65.9253 36.1565 66.0463 35.5528L68.8616 21.062C68.9826 20.4582 69.3459 20.1564 69.9513 20.1564H71.5406C71.9796 20.1564 72.2217 20.3073 72.2672 20.6092L74.197 28.6018L75.6726 21.062C75.7937 20.4582 76.1569 20.1564 76.7624 20.1564H78.3516C78.9571 20.1564 79.1993 20.4582 79.0781 21.062L76.2629 35.5528ZM89.2039 35.5528C89.0829 36.1565 88.7196 36.4584 88.1142 36.4584H87.1379C86.7746 36.4584 86.5325 36.3829 86.4114 36.232C86.2903 36.0811 86.2373 35.8923 86.2524 35.6659L86.1844 35.6433C86.0027 35.8999 85.7643 36.0999 85.4691 36.2433C85.1741 36.3867 84.8221 36.4584 84.4135 36.4584H82.2112C81.0912 36.4735 80.3004 36.1942 79.8387 35.6206C79.3771 35.0471 79.2522 34.1942 79.4641 33.0621L80.1225 29.7338L80.6673 26.881L81.3258 23.5527C81.7496 21.3186 83.1042 20.1866 85.3897 20.1564H90.9521C91.5575 20.1564 91.7997 20.4582 91.6786 21.062L91.4062 22.4205C91.285 23.0243 90.9294 23.3262 90.3391 23.3262H85.6849C85.0794 23.3262 84.7162 23.6281 84.5951 24.2319L82.9832 32.4961C82.8772 33.0999 83.1193 33.4018 83.7097 33.4018H85.4125C86.0178 33.4018 86.3811 33.0999 86.5022 32.4961L86.8882 30.4584H86.1163C85.8438 30.4584 85.6357 30.3829 85.4918 30.2319C85.3481 30.0809 85.3065 29.8545 85.367 29.5527L85.6395 28.1941C85.7605 27.5904 86.1238 27.2885 86.7292 27.2885H89.9077C90.5132 27.2885 90.7554 27.5904 90.6342 28.1941L89.2039 35.5528ZM102.622 33.0621C102.183 35.3263 100.828 36.4584 98.5578 36.4584H95.1522C92.8818 36.4584 91.9661 35.3263 92.405 33.0621L94.2668 23.5527C94.6906 21.2884 96.0452 20.1564 98.3307 20.1564H101.736C103.991 20.1564 104.907 21.2884 104.483 23.5527L102.622 33.0621ZM99.3297 32.4961L100.964 24.1186C101.025 23.8318 100.987 23.6092 100.851 23.4507C100.715 23.2923 100.51 23.213 100.238 23.213H98.6485C98.0431 23.213 97.6798 23.5149 97.5588 24.1186L95.9241 32.4961C95.8636 32.7829 95.9014 33.0055 96.0376 33.1641C96.1739 33.3225 96.3782 33.4018 96.6507 33.4018H98.2399C98.8453 33.4018 99.2086 33.0999 99.3297 32.4961Z" fill="#FFCF00"/>
<path d="M117.424 22.4205C117.288 23.0243 116.925 23.3262 116.335 23.3262H113.61L111.226 35.5528C111.105 36.1565 110.742 36.4584 110.136 36.4584H108.547C107.942 36.4584 107.7 36.1565 107.821 35.5528L110.205 23.3262H107.48C106.86 23.3262 106.617 23.0243 106.754 22.4205L107.003 21.062C107.125 20.4582 107.488 20.1564 108.093 20.1564H116.948C117.553 20.1564 117.795 20.4582 117.674 21.062L117.424 22.4205ZM125.552 35.349C125.582 35.681 125.514 35.949 125.348 36.1527C125.178 36.3565 124.943 36.4584 124.64 36.4584H122.763C122.461 36.4584 122.253 36.3867 122.147 36.2433C122.041 36.0999 121.98 35.8697 121.965 35.5528L121.874 33.2885H118.491L117.515 35.5528C117.379 35.8697 117.231 36.0999 117.072 36.2433C116.913 36.3867 116.683 36.4584 116.38 36.4584H114.518C114.216 36.4584 114.019 36.3565 113.928 36.1527C113.837 35.949 113.875 35.681 114.041 35.349L120.784 21.062C120.921 20.7752 121.061 20.5526 121.204 20.3941C121.348 20.2356 121.572 20.1564 121.874 20.1564H123.634C123.936 20.1564 124.129 20.2356 124.205 20.3941C124.281 20.5526 124.334 20.7752 124.364 21.062L125.552 35.349ZM121.761 30.2319L121.602 26.0658L119.808 30.2319H121.761ZM137.948 35.9603C137.918 36.1263 137.835 36.2509 137.699 36.3339C137.562 36.4169 137.419 36.4584 137.267 36.4584H135.405C135.042 36.4584 134.785 36.3829 134.634 36.232C134.482 36.0811 134.361 35.8547 134.27 35.5528L133.022 31.5451L130.229 35.5528C130.017 35.8547 129.805 36.0811 129.593 36.232C129.381 36.3829 129.094 36.4584 128.731 36.4584H126.869C126.718 36.4584 126.589 36.4169 126.483 36.3339C126.377 36.2509 126.339 36.1263 126.37 35.9603C126.4 35.8848 126.434 35.8169 126.472 35.7565C126.509 35.6961 126.551 35.6282 126.597 35.5528L131.886 28.2168L129.412 21.062C129.366 20.9111 129.351 20.7677 129.366 20.6319C129.397 20.4658 129.476 20.345 129.605 20.2695C129.733 20.1941 129.881 20.1564 130.047 20.1564H131.909C132.257 20.1564 132.511 20.2318 132.67 20.3828C132.829 20.5337 132.953 20.7601 133.044 21.062L134.293 25.0696L137.086 21.062C137.297 20.7601 137.509 20.5337 137.721 20.3828C137.933 20.2318 138.221 20.1564 138.584 20.1564H140.446C140.612 20.1564 140.745 20.1941 140.843 20.2695C140.941 20.345 140.975 20.4658 140.945 20.6319C140.93 20.7073 140.9 20.779 140.854 20.8469C140.809 20.9149 140.764 20.9865 140.718 21.062L135.451 28.2168L137.903 35.5528C137.933 35.6282 137.956 35.6961 137.971 35.7565C137.986 35.8169 137.979 35.8848 137.948 35.9603ZM143.715 35.5528C143.594 36.1565 143.231 36.4584 142.625 36.4584H141.036C140.431 36.4584 140.188 36.1565 140.309 35.5528L143.125 21.062C143.246 20.4582 143.609 20.1564 144.214 20.1564H145.804C146.409 20.1564 146.651 20.4582 146.53 21.062L143.715 35.5528Z" fill="#2B2A29"/>
</g>
<defs>
<clipPath id="clip0_5698_55063">
<rect width="150" height="46.3983" fill="white"/>
</clipPath>
</defs>
</svg>
