<svg width="188" height="40" viewBox="0 0 188 40" fill="none" xmlns="http://www.w3.org/2000/svg">
<path fill-rule="evenodd" clip-rule="evenodd" d="M148.834 0.000126098H152L152.018 0L152.035 0.000126098H157.657C160.003 0.000104809 162.317 0.563662 164.415 1.64615L169.115 4.07043C170.494 4.78215 171.981 5.24663 173.512 5.44399L177.174 5.91634C178.79 6.12473 180.002 7.54175 180.002 9.22178V14.2487C184.448 14.4244 188 18.1983 188 22.8282V31.4141C188 36.156 184.274 40 179.678 40H81.4806C76.8846 40 73.1588 36.156 73.1588 31.4141V22.8282C73.1588 18.0863 76.8846 14.2423 81.4806 14.2423H116.14C116.33 12.4042 117.422 10.7545 119.091 9.95478C122.08 8.52255 125.889 7.83436 128.868 7.49502C130.373 7.32353 131.698 7.23787 132.648 7.195C133.124 7.17355 133.506 7.16276 133.772 7.15734L133.823 7.15633L141.253 2.2779C143.519 0.790343 146.149 0.000126098 148.834 0.000126098ZM121.381 14.2423H123.765C124.894 13.0211 126.487 12.2601 128.252 12.2601C130.016 12.2601 131.609 13.0211 132.738 14.2423H162.385C163.514 13.0211 165.106 12.2601 166.871 12.2601C168.636 12.2601 170.229 13.0211 171.358 14.2423H177.506V12.7926H176.774C176.084 12.7926 175.525 12.216 175.525 11.5047C175.525 10.7934 176.084 10.2168 176.774 10.2168H177.506V9.22178C177.506 8.84092 177.231 8.51949 176.864 8.47222L173.202 7.99988C171.391 7.76629 169.631 7.21656 167.998 6.37424L167.777 6.26037L167.754 6.28535L166.233 7.85403C165.071 9.05357 163.494 9.72747 161.85 9.7275H159.94C159.25 9.7275 158.691 9.15089 158.691 8.43961C158.691 7.72833 159.25 7.15172 159.94 7.15172H161.85C161.878 7.15172 161.906 7.15139 161.934 7.15073L161.034 3.05092C159.938 2.73671 158.802 2.57589 157.657 2.5759H153.266V7.15174L155.978 7.15172C156.668 7.15172 157.227 7.72832 157.227 8.4396C157.227 9.15088 156.668 9.72749 155.978 9.7275L134.193 9.72762L134.189 9.72763L134.173 9.72769L134.103 9.72822C134.04 9.72883 133.945 9.73008 133.821 9.73261C133.574 9.73767 133.211 9.74785 132.757 9.76832C131.849 9.80929 130.581 9.89133 129.142 10.0552C126.256 10.3839 122.81 11.0293 120.207 12.2601H120.33C121.019 12.2601 121.578 12.8367 121.578 13.548C121.578 13.8037 121.506 14.0419 121.381 14.2423ZM163.854 4.23641L165.424 5.04636L164.468 6.03266C164.409 6.0933 164.349 6.15169 164.287 6.20777L163.854 4.23641ZM150.769 2.5759V7.15175L138.48 7.15182L142.593 4.451C144.459 3.22639 146.624 2.5759 148.834 2.5759H150.769Z" fill="#C479FF"/>
<path d="M88.6056 22.3336H94.3576V33.1313H91.0222V24.4973L87.3074 33.1313H82.8535L79.1387 24.4973V33.1313H75.8033V22.3336H81.5953L85.1104 31.1737L88.6056 22.3336Z" fill="white"/>
<path d="M104.515 22.0864C108.749 22.1138 110.866 23.8379 110.866 27.2585V33.1313H107.63V30.9264C106.538 32.5612 104.768 33.3785 102.318 33.3785C100.746 33.3785 99.5547 33.0763 98.7425 32.4719C97.9303 31.8537 97.5242 31.05 97.5242 30.0609C97.5242 28.962 98.0235 28.1652 99.0221 27.6706C100.021 27.1623 101.519 26.8464 103.516 26.7227L107.391 26.4549C107.377 25.8642 107.131 25.3971 106.652 25.0536C106.172 24.6965 105.46 24.5179 104.515 24.5179C102.877 24.5179 101.898 24.9231 101.579 25.7336H98.3231C98.4163 24.8407 98.7758 24.1126 99.4016 23.5494C100.041 22.9862 100.78 22.6015 101.619 22.3954C102.471 22.1756 103.436 22.0726 104.515 22.0864ZM103.256 30.947C104.495 30.947 105.493 30.7203 106.252 30.267C107.011 29.8137 107.391 29.2985 107.391 28.7215V28.4537L103.975 28.6803C102.963 28.749 102.204 28.8727 101.698 29.0512C101.206 29.2298 100.959 29.5046 100.959 29.8755C100.959 30.5898 101.725 30.947 103.256 30.947Z" fill="white"/>
<path d="M114.43 33.1313V22.3336H117.845V30.1846H122.658V22.3336H126.073V30.1846H130.887V22.3336H134.302V33.1313H114.43Z" fill="white"/>
<path d="M146.784 22.3336H151.837V33.1313H148.501V24.7652L142.989 33.1313H137.936V22.3336H141.271V30.6997L146.784 22.3336Z" fill="white"/>
<path d="M155.474 33.1313V22.3336H158.95V26.1458H165.281V22.3336H168.756V33.1313H165.281V29.1131H158.95V33.1313H155.474Z" fill="white"/>
<path d="M182.614 22.3336H186.349L181.596 33.7082C180.997 35.1644 180.284 36.1604 179.459 36.6961C178.633 37.2319 177.402 37.4998 175.764 37.4998C175.165 37.4998 174.525 37.4586 173.846 37.3761V34.6355C174.419 34.6767 174.985 34.6973 175.544 34.6973C176.343 34.6973 176.942 34.608 177.342 34.4295C177.754 34.2646 178.067 33.9212 178.28 33.3992L178.38 33.1313H176.842L171.39 22.3336H175.205L179.439 31.5652L182.614 22.3336Z" fill="white"/>
<path d="M16.4572 33.1313H11.8236L6.13152 27.3203H3.63497V33.1313H0V18.7069H3.63497V24.4561H6.09158L11.4841 18.7069H15.8381L8.9676 25.6512L16.4572 33.1313Z" fill="black"/>
<path d="M27.7348 22.3336H31.4696L26.7162 33.7082C26.117 35.1644 25.4047 36.1604 24.5791 36.6961C23.7536 37.2319 22.522 37.4998 20.8842 37.4998C20.2851 37.4998 19.646 37.4586 18.9669 37.3761V34.6355C19.5394 34.6767 20.1053 34.6973 20.6645 34.6973C21.4634 34.6973 22.0626 34.608 22.4621 34.4295C22.8748 34.2646 23.1877 33.9212 23.4008 33.3992L23.5006 33.1313H21.9627L16.5103 22.3336H20.325L24.5592 31.5652L27.7348 22.3336Z" fill="black"/>
<path d="M34.111 33.1313V22.3336H47.2328V33.1313H43.7576V25.2803H37.5861V33.1313H34.111Z" fill="black"/>
<path d="M59.7168 22.3336H64.7698V33.1313H61.4344V24.7652L55.922 33.1313H50.869V22.3336H54.2044V30.6997L59.7168 22.3336Z" fill="black"/>
</svg>
