<svg width="152" height="43" viewBox="0 0 152 43" fill="none" xmlns="http://www.w3.org/2000/svg">
<path fill-rule="evenodd" clip-rule="evenodd" d="M150.962 4.68819C150.509 8.86837 144.965 4.70762 142.65 4.65219L150.962 4.68819ZM51.6793 4.65151L135.702 4.69022C134.943 4.403 130.992 6.27495 130.279 6.66948C119.414 12.6794 118.113 29.8742 129.254 36.3395C130.436 37.0254 133.395 38.2771 134.866 38.3796C131.788 38.6302 118.354 38.4189 114.176 38.4189C105.532 38.4189 52.5793 38.1856 51.68 38.5465L51.6839 42.9784L151.417 43.0347L151.457 38.5078C150.171 38.1833 144.774 38.4396 143.025 38.4116C146.989 36.8863 147.561 36.9823 150.862 33.9148C151.66 33.1739 151.571 32.196 151.426 30.514C151.211 30.8056 150.593 31.3366 150.241 31.7335C146.9 35.5032 141.55 37.7905 136.501 35.7309C128.578 32.4986 128.872 16.948 132.22 11.4385C134.466 7.74374 138.882 5.56421 143.413 6.83848C147.465 7.97798 150.242 11.5855 151.059 15.7129H151.99L151.997 0.0349731H51.7334L51.6793 4.65151Z" fill="#FEFDFD"/>
<path fill-rule="evenodd" clip-rule="evenodd" d="M114.025 11.3874C114.03 7.03073 114.185 5.94498 118.558 5.94464L118.591 5.03812L82.6332 5.10242L82.6538 5.89403C84.1498 6.11601 85.8413 5.8162 86.585 6.97505C87.1718 7.88918 87.1545 10.2712 87.1545 11.5422L87.1547 31.6538C87.1457 37.7686 86.1363 36.6895 82.6515 37.1554L82.6363 38.0069L99.49 37.9777L99.4487 37.1318C95.8829 36.9234 95.0572 36.9666 94.9214 33.0474C94.8232 30.2068 94.9008 27.2372 94.9008 24.3827C94.9008 18.6484 94.9008 12.9143 94.9008 7.17836L106.278 7.22331C106.278 12.9946 106.278 18.766 106.278 24.5373C106.278 27.3841 106.36 30.3607 106.256 33.1918C106.121 36.8603 105.345 37.1108 101.796 37.1101L101.741 38.0095H118.591L118.54 37.1108C114.028 37.1097 114.025 35.9228 114.025 31.499V11.3874Z" fill="#FEFDFD"/>
<path fill-rule="evenodd" clip-rule="evenodd" d="M51.68 5.66324L51.7173 5.94463C55.5364 5.94446 56.1973 6.48543 56.1973 10.4592V32.4272C56.1973 36.436 55.6399 37.1108 51.737 37.1108L51.68 38.0094C55.6571 38.0094 65.1216 38.1706 68.4784 37.9767L68.459 37.1395C64.5428 36.8152 63.9444 36.7879 63.9444 32.4272V7.18003H70.1603C72.4572 7.18003 75.4356 7.01669 76.9089 8.36752C78.5799 9.89927 78.5576 11.5001 79.2524 13.9845L80.0806 13.957L80.1011 5.10063L80.158 5.03903C70.6652 5.03903 61.1727 5.03903 51.68 5.03903V5.66324Z" fill="#FEFDFD"/>
<path fill-rule="evenodd" clip-rule="evenodd" d="M13.6728 36.9136C13.6728 37.4583 15.8396 38.488 16.7137 39.0219C17.1084 39.2629 19.659 40.8131 19.8768 40.8444C20.202 40.8908 26.1418 37.3841 26.243 37.0685V29.9519C25.8959 29.4967 23.6475 28.2493 23.0451 27.9031C19.218 25.7023 20.6901 25.6058 16.6282 28.0639C12.9076 30.3156 13.6728 28.1713 13.6728 36.9136Z" fill="#FEFDFD"/>
<path fill-rule="evenodd" clip-rule="evenodd" d="M13.6927 5.56709L13.686 12.6249C13.686 13.2116 15.6567 14.1208 16.5973 14.696C20.8154 17.276 19.3811 16.9681 23.067 14.854C24.2348 14.1843 26.2573 13.3741 26.2573 12.4704L26.2514 5.45327C25.0906 5.09971 20.6154 1.96017 19.9774 1.95011C19.6359 1.94479 14.2676 5.13647 13.6927 5.56709Z" fill="#FEFDFD"/>
<path fill-rule="evenodd" clip-rule="evenodd" d="M27.2816 36.9136C27.2816 37.4041 28.2014 37.7815 28.6872 38.0635L33.4801 40.8431C33.8373 40.8899 39.0696 37.7328 39.8371 37.2232L39.8417 29.7198C38.7454 29.3308 33.9812 26.0398 33.3884 26.205C33.0223 26.3069 30.7712 27.732 30.2281 28.0572C26.5084 30.2846 27.2816 28.2458 27.2816 36.9136Z" fill="#FEFDFD"/>
<path fill-rule="evenodd" clip-rule="evenodd" d="M20.5342 24.8468C20.8103 25.4 21.5467 25.6553 22.071 25.959C27.8816 29.3237 25.8072 29.3193 30.1876 26.7783C30.7674 26.4419 33.1043 25.3323 33.1044 24.692L33.0929 17.6173C32.4109 17.18 27.0291 13.9762 26.8134 13.9878C26.3615 14.012 21.6071 17.1435 20.5438 17.5535L20.5342 24.8468Z" fill="#FEFDFD"/>
<path fill-rule="evenodd" clip-rule="evenodd" d="M-0.00323486 36.9136C-0.00323486 37.5234 0.390932 37.4366 1.45162 38.0862C2.0302 38.4405 2.45203 38.6948 3.07347 39.0542C6.96352 41.3043 5.5592 41.4472 9.61071 38.9859C10.4977 38.4471 12.5667 37.4682 12.5667 36.9136V30.1067C12.5667 29.5786 10.3275 28.4956 9.50145 27.9911C9.0214 27.6978 6.53104 26.1577 6.24208 26.173L1.36483 29.0006C0.386968 29.5629 -0.00323486 29.5848 -0.00323486 30.1067V36.9136Z" fill="#FEFDFD"/>
<path fill-rule="evenodd" clip-rule="evenodd" d="M6.77545 24.8468C7.09009 25.464 12.9131 28.6754 13.137 28.6515L18.0439 25.8053C18.5277 25.5156 19.3458 25.3167 19.3458 24.692L19.3359 17.6144L13.018 13.9345L6.78354 17.5415L6.77545 24.8468Z" fill="#FEFDFD"/>
</svg>
